<svg width="24" height="18" viewBox="0 0 24 18" fill="none" xmlns="http://www.w3.org/2000/svg">
<path d="M23.499 3.20305C23.3599 2.70456 23.0946 2.25038 22.7286 1.88442C22.3627 1.51847 21.9085 1.25313 21.41 1.11405C19.54 0.613051 12.01 0.613051 12.01 0.613051C12.01 0.613051 4.50101 0.603051 2.61101 1.11405C2.11258 1.25337 1.65853 1.51893 1.29275 1.88505C0.926977 2.25118 0.661852 2.70549 0.523012 3.20405C0.168222 5.11887 -0.00687237 7.06265 1.22538e-05 9.01005C-0.00556628 10.9504 0.169523 12.8871 0.523012 14.7951C0.662002 15.2934 0.927193 15.7475 1.29296 16.1135C1.65873 16.4794 2.1127 16.7448 2.61101 16.8841C4.48001 17.3861 12.011 17.3861 12.011 17.3861C12.011 17.3861 19.519 17.3861 21.41 16.8841C21.9086 16.7449 22.3629 16.4794 22.7288 16.1133C23.0948 15.7471 23.3601 15.2927 23.499 14.7941C23.8447 12.8857 24.0121 10.9494 23.999 9.01005C24.0136 7.0627 23.8462 5.11825 23.499 3.20205V3.20305ZM9.60801 12.6031V5.40705L15.874 9.01105L9.60801 12.6031Z" fill="white"/>
</svg>
